<?xml version="1.0" encoding="iso-8859-1"?>
<!-- Generator: Adobe Illustrator 19.1.0, SVG Export Plug-In . SVG Version: 6.00 Build 0)  -->
<svg xmlns="http://www.w3.org/2000/svg" xmlns:xlink="http://www.w3.org/1999/xlink" version="1.1" id="Capa_1" x="0px" y="0px" viewBox="0 0 343.133 343.133" style="enable-background:new 0 0 343.133 343.133;" xml:space="preserve" width="512px" height="512px">
<g>
	<g>
		<path d="M295.03,343.133H48.103C21.379,343.133,0,321.754,0,295.03V48.103C0,21.379,21.379,0,48.103,0    H295.03c26.724,0,48.103,21.379,48.103,48.103V295.03C343.133,321.754,321.754,343.133,295.03,343.133z M48.103,32.068    c-8.552,0-16.034,7.483-16.034,16.034V295.03c0,8.552,7.483,16.034,16.034,16.034H295.03c8.552,0,16.034-7.483,16.034-16.034    V48.103c0-8.552-7.483-16.034-16.034-16.034H48.103z" fill="#D80027"/>
	</g>
</g>
<g>
</g>
<g>
</g>
<g>
</g>
<g>
</g>
<g>
</g>
<g>
</g>
<g>
</g>
<g>
</g>
<g>
</g>
<g>
</g>
<g>
</g>
<g>
</g>
<g>
</g>
<g>
</g>
<g>
</g>
</svg>
